<svg width="14" height="14" viewBox="0 0 14 14" fill="none" xmlns="http://www.w3.org/2000/svg">
<g clip-path="url(#clip0_9_928)">
<path fill-rule="evenodd" clip-rule="evenodd" d="M11.2975 -0.980604L11.3528 3.8833L7.1105 5.9198L7.05818 1.32735L11.2975 -0.980604Z" fill="#3D8BFF"/>
<path fill-rule="evenodd" clip-rule="evenodd" d="M15.5503 6.68398L11.3506 9.08611L7.14853 6.68018L11.3485 4.47405L15.5503 6.68398Z" fill="#3D8BFF"/>
<path fill-rule="evenodd" clip-rule="evenodd" d="M6.40174 6.68398L2.20212 9.08611L-2 6.68018L2.19994 4.47405L6.40174 6.68398Z" fill="#3D8BFF"/>
<path fill-rule="evenodd" clip-rule="evenodd" d="M2.15445 -1.00024L6.51336 1.15856L6.40191 5.86306L2.28629 3.82476L2.15445 -1.00024Z" fill="#3D8BFF"/>
<path fill-rule="evenodd" clip-rule="evenodd" d="M11.4166 14.2943L7.05769 12.1354L7.16914 7.43092L11.2848 9.46925L11.4166 14.2943Z" fill="#3D8BFF"/>
<path fill-rule="evenodd" clip-rule="evenodd" d="M2.3056 14.3382L2.2502 9.4743L6.49256 7.43779L6.54487 12.0302L2.3056 14.3382Z" fill="#3D8BFF"/>
</g>
<defs>
<clipPath id="clip0_9_928">
<rect width="14" height="14" fill="white"/>
</clipPath>
</defs>
</svg>
